
<svg width="512" height="512" viewBox="0 0 512 512" fill="none" xmlns="http://www.w3.org/2000/svg">
  <rect width="512" height="512" rx="64" fill="#000000"/>
  <rect x="32" y="32" width="448" height="448" rx="32" fill="#1e3a8a"/>
  
  <!-- AI Brain Icon -->
  <path d="M256 128C198.562 128 152 174.562 152 232C152 289.438 198.562 336 256 336C313.438 336 360 289.438 360 232C360 174.562 313.438 128 256 128Z" fill="white"/>
  
  <!-- Neural Network Lines -->
  <circle cx="200" cy="200" r="8" fill="#000000"/>
  <circle cx="312" cy="200" r="8" fill="#000000"/>
  <circle cx="256" cy="160" r="8" fill="#000000"/>
  <circle cx="256" cy="240" r="8" fill="#000000"/>
  <circle cx="220" cy="280" r="8" fill="#000000"/>
  <circle cx="292" cy="280" r="8" fill="#000000"/>
  
  <!-- Connection Lines -->
  <line x1="200" y1="200" x2="256" y2="160" stroke="#000000" stroke-width="2"/>
  <line x1="312" y1="200" x2="256" y2="160" stroke="#000000" stroke-width="2"/>
  <line x1="200" y1="200" x2="256" y2="240" stroke="#000000" stroke-width="2"/>
  <line x1="312" y1="200" x2="256" y2="240" stroke="#000000" stroke-width="2"/>
  <line x1="256" y1="240" x2="220" y2="280" stroke="#000000" stroke-width="2"/>
  <line x1="256" y1="240" x2="292" y2="280" stroke="#000000" stroke-width="2"/>
  
  <!-- AI Text -->
  <text x="256" y="400" text-anchor="middle" font-family="Arial, sans-serif" font-size="48" font-weight="bold" fill="white">AI</text>
</svg>
